grf
version=1
nRows=9
nColumns=37
inDegrees=no
endheader
time	ground_force_1_vx	ground_force_1_vy	ground_force_1_vz	ground_force_1_px	ground_force_1_py	ground_force_1_pz	ground_moment_1_mx	ground_moment_1_my	ground_moment_1_mz	ground_force_2_vx	ground_force_2_vy	ground_force_2_vz	ground_force_2_px	ground_force_2_py	ground_force_2_pz	ground_moment_2_mx	ground_moment_2_my	ground_moment_2_mz	ground_force_3_vx	ground_force_3_vy	ground_force_3_vz	ground_force_3_px	ground_force_3_py	ground_force_3_pz	ground_moment_3_mx	ground_moment_3_my	ground_moment_3_mz	ground_force_4_vx	ground_force_4_vy	ground_force_4_vz	ground_force_4_px	ground_force_4_py	ground_force_4_pz	ground_moment_4_mx	ground_moment_4_my	ground_moment_4_mz
      0.00000000	      0.00000000	     -0.00000000	      0.00000000	      0.00000000	      0.00000000	      0.00000000	      0.00000000	      0.00000000	      0.00000000	     -9.28075409	      1.76537061	   -772.86035156	   -306.10648919	  -1068.61885953	      0.00000000	      0.00000000	     -0.00000000	  -2629.72388950	      0.00000000	     -0.00000000	      0.00000000	      0.00000000	      0.00000000	      0.00000000	      0.00000000	      0.00000000	      0.00000000	    -34.72441340	     16.29912108	     76.21362305	    604.00444608	   -562.19612379	      0.00000000	      0.00000000	     -0.00000000	   -138.24104936
      0.01000000	      0.00000000	     -0.00000000	      0.00000000	      0.00000000	      0.00000000	      0.00000000	      0.00000000	      0.00000000	      0.00000000	    -10.75107098	      1.97772992	   -771.69812012	   -303.07475033	  -1069.54760872	      0.00000000	      0.00000000	     -0.00000000	  -2776.82088349	      0.00000000	     -0.00000000	      0.00000000	      0.00000000	      0.00000000	      0.00000000	      0.00000000	      0.00000000	      0.00000000	    -35.02389766	     16.19453736	     76.22105408	    599.01349875	   -561.54179271	      0.00000000	      0.00000000	     -0.00000000	   -104.57789824
      0.02000000	      0.00000000	     -0.00000000	      0.00000000	      0.00000000	      0.00000000	      0.00000000	      0.00000000	      0.00000000	      0.00000000	    -11.12016487	      1.45509124	   -767.81323242	   -301.51676681	  -1070.09878240	      0.00000000	      0.00000000	     -0.00000000	  -2674.07229883	      0.00000000	     -0.00000000	      0.00000000	      0.00000000	      0.00000000	      0.00000000	      0.00000000	      0.00000000	      0.00000000	    -34.70988322	     16.26976698	     75.51818848	    603.84624905	   -565.72301427	      0.00000000	      0.00000000	      0.00000000	     28.76964317
      0.03000000	      0.00000000	     -0.00000000	      0.00000000	      0.00000000	      0.00000000	      0.00000000	      0.00000000	      0.00000000	      0.00000000	    -12.10168743	      1.02590287	   -765.68695068	   -299.53671004	  -1070.27569445	      0.00000000	      0.00000000	     -0.00000000	  -2804.19935774	      0.00000000	     -0.00000000	      0.00000000	      0.00000000	      0.00000000	      0.00000000	      0.00000000	      0.00000000	      0.00000000	    -35.06893779	     16.17852327	     75.97875977	    605.93761071	   -564.23033456	      0.00000000	     -0.00000000	     -0.00000000	    -83.13320728
      0.04000000	      0.00000000	     -0.00000000	      0.00000000	      0.00000000	      0.00000000	      0.00000000	      0.00000000	      0.00000000	      0.00000000	    -12.25112438	     -0.34189236	   -762.04095459	   -297.56539121	  -1070.08584117	      0.00000000	     -0.00000000	     -0.00000000	  -2750.89359623	      0.00000000	     -0.00000000	      0.00000000	      0.00000000	      0.00000000	      0.00000000	      0.00000000	      0.00000000	      0.00000000	    -34.91836406	     16.21016998	     75.04277802	    607.71797886	   -562.69194789	      0.00000000	      0.00000000	     -0.00000000	   -211.56695613
      0.05000000	      0.00000000	     -0.00000000	      0.00000000	      0.00000000	      0.00000000	      0.00000000	      0.00000000	      0.00000000	      0.00000000	    -11.99828625	     -1.04020572	   -762.57366943	   -296.45389313	  -1070.77525033	      0.00000000	      0.00000000	     -0.00000000	  -2464.28552581	      0.00000000	     -0.00000000	      0.00000000	      0.00000000	      0.00000000	      0.00000000	      0.00000000	      0.00000000	      0.00000000	    -34.42621470	     16.25467029	     76.56575775	    599.33162433	   -563.85872694	      0.00000000	      0.00000000	     -0.00000000	   -117.96815693
      0.06000000	      0.00000000	     -0.00000000	      0.00000000	      0.00000000	      0.00000000	      0.00000000	      0.00000000	      0.00000000	      0.00000000	    -11.86422634	     -1.36640930	   -761.57568359	   -295.97706332	  -1071.06894115	      0.00000000	     -0.00000000	     -0.00000000	  -2397.61426478	      0.00000000	     -0.00000000	      0.00000000	      0.00000000	      0.00000000	      0.00000000	      0.00000000	      0.00000000	      0.00000000	    -34.87391902	     16.28450699	     74.98700714	    606.73093297	   -566.68548814	      0.00000000	      0.00000000	     -0.00000000	    -68.86462951
      0.07000000	      0.00000000	     -0.00000000	      0.00000000	      0.00000000	      0.00000000	      0.00000000	      0.00000000	      0.00000000	      0.00000000	    -11.32941532	     -2.21313906	   -760.57232666	   -295.18325987	  -1071.76994021	      0.00000000	      0.00000000	     -0.00000000	  -2128.31963255	      0.00000000	     -0.00000000	      0.00000000	      0.00000000	      0.00000000	      0.00000000	      0.00000000	      0.00000000	      0.00000000	    -34.99293758	     16.14969178	     74.57787323	    612.54358513	   -566.77074374	      0.00000000	      0.00000000	     -0.00000000	    -85.99426031
      0.08000000	      0.00000000	     -0.00000000	      0.00000000	      0.00000000	      0.00000000	      0.00000000	      0.00000000	      0.00000000	      0.00000000	    -11.35948944	     -2.95618057	   -760.51434326	   -294.07580335	  -1072.24936071	      0.00000000	      0.00000000	     -0.00000000	  -2173.74485636	      0.00000000	     -0.00000000	      0.00000000	      0.00000000	      0.00000000	      0.00000000	      0.00000000	      0.00000000	      0.00000000	    -34.93381741	     16.14926453	     74.98827362	    608.33608903	   -564.06082887	      0.00000000	      0.00000000	     -0.00000000	   -119.40544543
